# Blender 5.0.1
# www.blender.org
mtllib larry.mtl
o Icosphere.003
v 0.939771 1.412570 -0.038067
v 1.146783 1.748419 0.165998
v 0.829021 1.757853 0.299721
v 0.652944 1.699889 -0.089284
v 0.861892 1.654631 -0.463423
v 1.167098 1.684624 -0.305648
v 0.987897 2.243305 0.240902
v 0.682691 2.213312 0.083127
v 0.703006 2.149518 -0.388519
v 1.020768 2.140083 -0.522242
v 1.017149 1.968183 -0.133237
v 0.910018 2.096852 -0.184454
v 0.000000 -1.000000 -0.012104
v -0.001214 -0.419067 -1.002803
v 0.010483 -1.000000 -0.006052
v 0.867239 -0.419067 -0.501401
v 0.010483 -1.000000 0.006052
v 0.867239 -0.419067 0.501401
v 0.000000 -1.000000 0.012104
v -0.001214 -0.419067 1.002803
v -0.010482 -1.000000 0.006052
v -0.866025 -0.419067 0.500000
v -0.010483 -1.000000 -0.006052
v -0.866025 -0.419067 -0.500000
v -0.001395 1.116706 -1.152450
v 0.996656 1.116706 -0.576225
v 0.996656 1.116706 0.576225
v -0.001395 1.116706 1.152450
v -0.995261 1.116706 0.574614
v -0.995261 1.116706 -0.574614
v 0.065882 2.782640 -1.348073
v 0.979512 2.898952 -0.754260
v 0.912305 3.103931 0.320136
v -0.068530 3.192600 0.800719
v -0.978094 3.076061 0.205642
v -0.911076 2.871653 -0.865751
v 0.054822 4.521397 -1.585604
v 0.890885 4.627834 -1.042205
v 0.829385 4.815412 -0.059024
v -0.068179 4.896553 0.380758
v -0.900523 4.789907 -0.163798
v -0.839194 4.602853 -1.144231
v 0.031886 5.885711 -1.528591
v 0.607407 5.958979 -1.154532
v 0.565071 6.088101 -0.477740
v -0.052784 6.143957 -0.175007
v -0.625744 6.070545 -0.549863
v -0.583527 5.941783 -1.224763
v 0.012029 6.280803 -1.286486
v 0.327019 6.320904 -1.081758
v 0.303849 6.391574 -0.711341
v -0.034312 6.422145 -0.545652
v -0.347900 6.381965 -0.750815
v -0.324794 6.311493 -1.120197
v -0.001214 -0.419067 -1.002803
v 0.867239 -0.419067 -0.501401
v 0.867239 -0.419067 0.501401
v -0.001214 -0.419067 1.002803
v 0.803116 3.854734 -0.017195
v 0.991709 4.160700 0.168713
v 0.702220 4.169295 0.290538
v 0.541810 4.116488 -0.063855
v 0.732166 4.075257 -0.404705
v 1.010216 4.102582 -0.260967
v 0.846960 4.611554 0.236953
v 0.568910 4.584229 0.093215
v 0.587417 4.526111 -0.336465
v 0.876906 4.517516 -0.458290
v 1.037316 4.570323 -0.103897
v 0.776011 4.832077 -0.150557
v 0.834678 3.749950 -0.791945
v 1.023271 4.055916 -0.606037
v 0.733783 4.064511 -0.484212
v 0.573373 4.011704 -0.838604
v 0.763729 3.970473 -1.179454
v 1.041779 3.997798 -1.035717
v 0.878522 4.506770 -0.537797
v 0.600473 4.479445 -0.681534
v 0.618980 4.421327 -1.111214
v 0.908469 4.412732 -1.233040
v 1.068879 4.465539 -0.878647
v 0.807573 4.727293 -0.925307
v 0.933389 3.314929 -0.332384
v 1.051591 3.506696 -0.215865
v 0.870151 3.512083 -0.139510
v 0.769613 3.478986 -0.361628
v 0.888920 3.453144 -0.575259
v 1.063191 3.470270 -0.485170
v 0.960868 3.789273 -0.173095
v 0.786598 3.772146 -0.263184
v 0.798198 3.735720 -0.532489
v 0.979637 3.730333 -0.608844
v 1.080176 3.763431 -0.386725
v 0.916400 3.927487 -0.415970
vn 0.2884 -0.6207 0.7291
vn 0.8140 -0.5699 0.1121
vn -0.6832 -0.6107 0.4003
vn -0.6539 -0.7028 -0.2802
vn 0.3418 -0.7885 -0.5113
vn 0.8768 0.4802 -0.0272
vn 0.3875 -0.0151 0.9218
vn -0.9023 -0.0893 0.4217
vn -0.8644 -0.2083 -0.4576
vn 0.4637 -0.2546 -0.8486
vn 0.9314 0.3241 -0.1655
vn -0.4637 0.2546 0.8486
vn -0.9957 0.0755 -0.0531
vn -0.3875 0.0151 -0.9218
vn 0.9103 0.3754 0.1743
vn 0.7864 0.5254 -0.3249
vn 0.0826 0.9375 -0.3379
vn 0.3465 0.9315 -0.1111
vn 0.0953 0.9830 0.1570
vn 0.6682 0.6781 0.3059
vn 0.2805 -0.8279 -0.4858
vn 0.5612 -0.8277 -0.0000
vn 0.2805 -0.8279 0.4858
vn -0.2820 -0.8278 0.4851
vn -0.5008 -0.0840 0.8614
vn -0.5618 -0.8273 -0.0000
vn -0.2820 -0.8278 -0.4851
vn -0.0000 -1.0000 -0.0000
vn 0.4711 0.1477 0.8697
vn 0.9965 -0.0840 -0.0000
vn -0.9965 -0.0839 -0.0000
vn 0.4982 -0.0840 -0.8630
vn 0.4982 -0.0840 0.8630
vn -0.5008 -0.0840 -0.8614
vn 0.9969 0.0596 0.0510
vn 0.5238 -0.0993 -0.8460
vn -0.4748 -0.1033 -0.8740
vn -0.5255 0.1433 0.8386
vn 0.9992 0.0301 0.0274
vn -0.9993 0.0216 -0.0321
vn 0.5405 0.0442 -0.8402
vn -0.9972 0.0304 -0.0682
vn 0.4453 0.2142 0.8694
vn 0.5514 -0.1095 -0.8270
vn -0.4483 -0.1238 -0.8853
vn -0.5543 0.1993 0.8081
vn -0.7861 0.5962 -0.1629
vn -0.4403 0.0301 -0.8974
vn -0.5442 0.3470 0.7638
vn 0.9775 0.2099 0.0211
vn -0.9788 0.1811 -0.0958
vn 0.4364 0.3617 0.8239
vn -0.0031 0.9822 -0.1876
vn 0.3481 0.7413 0.5738
vn 0.4315 0.4870 -0.7593
vn -0.3542 0.4756 -0.8052
vn -0.4374 0.7295 0.5258
vn 0.7818 0.6196 -0.0693
vn -0.0275 0.9904 -0.1352
vn 0.9957 -0.0755 0.0531
vn 0.8644 0.2083 0.4576
vn 0.9023 0.0893 -0.4217
vn 0.6539 0.7028 0.2802
vn -0.3418 0.7885 0.5113
vn -0.8140 0.5699 -0.1121
vn -0.2884 0.6207 -0.7291
vn 0.6832 0.6107 -0.4003
vt 0.181819 0.000000
vt 0.272728 0.157461
vt 0.090910 0.157461
vt 0.363637 0.000000
vt 0.454546 0.157461
vt 0.909091 0.000000
vt 1.000000 0.157461
vt 0.818182 0.157461
vt 0.727273 0.000000
vt 0.636364 0.157461
vt 0.545455 0.000000
vt 0.363637 0.314921
vt 0.181819 0.314921
vt 0.909091 0.314921
vt 0.727273 0.314921
vt 0.545455 0.314921
vt 0.000000 0.314921
vt 0.272728 0.472382
vt 0.090910 0.472382
vt 0.818182 0.472382
vt 0.636364 0.472382
vt 0.454546 0.472382
vt 1.000000 0.500000
vt 1.000000 1.000000
vt 0.833333 1.000000
vt 0.833333 0.500000
vt 0.666667 1.000000
vt 0.666667 0.500000
vt 0.500000 1.000000
vt 0.500000 0.500000
vt 0.333333 1.000000
vt 0.333333 0.500000
vt 0.166667 1.000000
vt 0.166667 0.500000
vt -0.000000 1.000000
vt -0.000000 0.500000
vt 0.750000 0.490000
vt 0.957846 0.370000
vt 0.957846 0.130000
vt 0.750000 0.010000
vt 0.542154 0.130000
vt 0.542154 0.370000
vt 0.457846 0.370000
vt 0.250000 0.490000
vt 0.042154 0.370000
vt 0.042154 0.130000
vt 0.250000 0.010000
vt 0.457846 0.130000
s 0
f 1/1/1 2/2/1 3/3/1
f 2/2/2 1/4/2 6/5/2
f 1/6/3 3/7/3 4/8/3
f 1/9/4 4/8/4 5/10/4
f 1/11/5 5/10/5 6/5/5
f 2/2/6 6/5/6 11/12/6
f 3/3/7 2/2/7 7/13/7
f 4/8/8 3/7/8 8/14/8
f 5/10/9 4/8/9 9/15/9
f 6/5/10 5/10/10 10/16/10
f 2/2/11 11/12/11 7/13/11
f 3/3/12 7/13/12 8/17/12
f 4/8/13 8/14/13 9/15/13
f 5/10/14 9/15/14 10/16/14
f 6/5/15 10/16/15 11/12/15
f 7/13/16 11/12/16 12/18/16
f 8/17/17 7/13/17 12/19/17
f 9/15/18 8/14/18 12/20/18
f 10/16/19 9/15/19 12/21/19
f 11/12/20 10/16/20 12/22/20
f 13/23/21 14/24/21 16/25/21 15/26/21
f 15/26/22 16/25/22 18/27/22 17/28/22
f 17/28/23 18/27/23 20/29/23 19/30/23
f 19/30/24 20/29/24 22/31/24 21/32/24
f 22/31/25 20/29/25 28/29/25 29/31/25
f 21/32/26 22/31/26 24/33/26 23/34/26
f 23/34/27 24/33/27 14/35/27 13/36/27
f 13/37/28 15/38/28 17/39/28 19/40/28 21/41/28 23/42/28
f 28/29/29 27/27/29 33/27/29 34/29/29
f 18/27/30 16/25/30 26/25/30 27/27/30
f 24/33/31 22/31/31 29/31/31 30/33/31
f 16/25/32 14/24/32 25/24/32 26/25/32
f 20/29/33 18/27/33 27/27/33 28/29/33
f 14/35/34 24/33/34 30/33/34 25/35/34
f 33/27/35 32/25/35 38/25/35 39/27/35
f 26/25/36 25/24/36 31/24/36 32/25/36
f 25/35/37 30/33/37 36/33/37 31/35/37
f 29/31/38 28/29/38 34/29/38 35/31/38
f 27/27/39 26/25/39 32/25/39 33/27/39
f 30/33/40 29/31/40 35/31/40 36/33/40
f 38/25/41 37/24/41 43/24/41 44/25/41
f 36/33/42 35/31/42 41/31/42 42/33/42
f 34/29/43 33/27/43 39/27/43 40/29/43
f 32/25/44 31/24/44 37/24/44 38/25/44
f 31/35/45 36/33/45 42/33/45 37/35/45
f 35/31/46 34/29/46 40/29/46 41/31/46
f 48/33/47 47/31/47 53/31/47 54/33/47
f 37/35/48 42/33/48 48/33/48 43/35/48
f 41/31/49 40/29/49 46/29/49 47/31/49
f 39/27/50 38/25/50 44/25/50 45/27/50
f 42/33/51 41/31/51 47/31/51 48/33/51
f 40/29/52 39/27/52 45/27/52 46/29/52
f 50/43/53 49/44/53 54/45/53 53/46/53 52/47/53 51/48/53
f 46/29/54 45/27/54 51/27/54 52/29/54
f 44/25/55 43/24/55 49/24/55 50/25/55
f 43/35/56 48/33/56 54/33/56 49/35/56
f 47/31/57 46/29/57 52/29/57 53/31/57
f 45/27/58 44/25/58 50/25/58 51/27/58
f 18/27/59 20/29/59 58/29/59 57/27/59
f 16/25/59 18/27/59 57/27/59 56/25/59
f 14/24/59 16/25/59 56/25/59 55/24/59
f 59/1/1 60/2/1 61/3/1
f 60/2/2 59/4/2 64/5/2
f 59/6/3 61/7/3 62/8/3
f 59/9/4 62/8/4 63/10/4
f 59/11/5 63/10/5 64/5/5
f 60/2/60 64/5/60 69/12/60
f 61/3/7 60/2/7 65/13/7
f 62/8/8 61/7/8 66/14/8
f 63/10/9 62/8/9 67/15/9
f 64/5/10 63/10/10 68/16/10
f 60/2/61 69/12/61 65/13/61
f 61/3/12 65/13/12 66/17/12
f 62/8/13 66/14/13 67/15/13
f 63/10/14 67/15/14 68/16/14
f 64/5/62 68/16/62 69/12/62
f 65/13/63 69/12/63 70/18/63
f 66/17/64 65/13/64 70/19/64
f 67/15/65 66/14/65 70/20/65
f 68/16/66 67/15/66 70/21/66
f 69/12/67 68/16/67 70/22/67
f 71/1/1 72/2/1 73/3/1
f 72/2/2 71/4/2 76/5/2
f 71/6/3 73/7/3 74/8/3
f 71/9/4 74/8/4 75/10/4
f 71/11/5 75/10/5 76/5/5
f 72/2/60 76/5/60 81/12/60
f 73/3/7 72/2/7 77/13/7
f 74/8/8 73/7/8 78/14/8
f 75/10/9 74/8/9 79/15/9
f 76/5/10 75/10/10 80/16/10
f 72/2/61 81/12/61 77/13/61
f 73/3/12 77/13/12 78/17/12
f 74/8/13 78/14/13 79/15/13
f 75/10/14 79/15/14 80/16/14
f 76/5/62 80/16/62 81/12/62
f 77/13/63 81/12/63 82/18/63
f 78/17/64 77/13/64 82/19/64
f 79/15/65 78/14/65 82/20/65
f 80/16/66 79/15/66 82/21/66
f 81/12/67 80/16/67 82/22/67
f 83/1/1 84/2/1 85/3/1
f 84/2/2 83/4/2 88/5/2
f 83/6/3 85/7/3 86/8/3
f 83/9/4 86/8/4 87/10/4
f 83/11/5 87/10/5 88/5/5
f 84/2/60 88/5/60 93/12/60
f 85/3/7 84/2/7 89/13/7
f 86/8/8 85/7/8 90/14/8
f 87/10/9 86/8/9 91/15/9
f 88/5/10 87/10/10 92/16/10
f 84/2/61 93/12/61 89/13/61
f 85/3/12 89/13/12 90/17/12
f 86/8/13 90/14/13 91/15/13
f 87/10/14 91/15/14 92/16/14
f 88/5/62 92/16/62 93/12/62
f 89/13/63 93/12/63 94/18/63
f 90/17/64 89/13/64 94/19/64
f 91/15/65 90/14/65 94/20/65
f 92/16/66 91/15/66 94/21/66
f 93/12/67 92/16/67 94/22/67
