# Blender 5.0.1
# www.blender.org
mtllib testobj.mtl
o Icosphere
v -0.007142 -0.765726 0.006518
v 0.700898 -0.427404 1.025333
v -0.258953 -0.419008 1.643387
v -0.838003 -0.419004 0.000000
v -0.258953 -0.419008 -1.643387
v 0.772357 -0.471978 -1.079166
v 0.266253 0.430919 1.659485
v -0.567562 0.347572 0.920438
v -0.672476 0.415093 -1.001884
v 0.264441 0.302401 -0.948960
v 0.928137 0.665039 0.470966
v -0.025539 1.184851 -0.089175
v -0.152207 -0.796992 0.965951
v 0.293062 -0.456972 0.517104
v 0.246286 -0.492572 1.562946
v 0.834309 -0.439239 0.005773
v 0.289401 -0.458368 -0.535656
v -0.492565 -0.796990 0.000000
v -0.644776 -0.492571 0.965955
v -0.152207 -0.796992 -0.965951
v -0.644776 -0.492571 -0.965955
v 0.246286 -0.492572 -1.562946
v 1.093632 -0.004655 1.026630
v 0.958476 0.013220 -0.409470
v -0.000191 0.000205 1.944956
v 0.585878 0.001879 1.634387
v -0.891062 0.000000 0.596988
v -0.550706 0.000000 1.562956
v -0.550706 0.000000 -1.562956
v -0.891062 0.000000 -0.596988
v 0.564192 0.003106 -1.580292
v 0.000000 0.000000 -1.931921
v 0.552156 0.415284 0.187197
v -0.244691 0.488094 1.557683
v -0.835044 0.510397 -0.009510
v -0.150612 0.337347 -1.091570
v 0.836407 0.645312 0.135569
v 0.200461 0.464314 0.502971
v 0.450381 0.812721 0.101395
v -0.408865 0.802508 0.594369
v -0.434325 0.870194 -0.632430
v 0.229211 0.785186 -0.862361
vn 0.6512 -0.7553 0.0738
vn 0.0498 -0.9986 0.0181
vn 0.0646 -0.9977 -0.0228
vn 0.0640 -0.9977 0.0225
vn 0.6506 -0.7560 -0.0727
vn 0.7286 -0.6772 0.1032
vn 0.0399 -0.5996 0.7993
vn -0.9255 -0.3437 0.1590
vn -0.7603 -0.4372 -0.4805
vn 0.6225 -0.4223 -0.6589
vn 0.6222 -0.5797 0.5261
vn -0.5544 -0.2326 0.7991
vn -0.9921 -0.1256 -0.0000
vn -0.5427 -0.2224 -0.8100
vn 0.9446 0.0776 -0.3188
vn 0.1554 0.9877 0.0197
vn -0.8123 0.4994 0.3014
vn -0.8005 0.5698 -0.1859
vn 0.3333 0.1900 -0.9235
vn 0.4047 0.8997 -0.1636
vn 0.6483 0.7421 -0.1700
vn 0.4039 0.9071 -0.1186
vn 0.8537 0.1517 -0.4982
vn -0.0507 0.8803 -0.4717
vn -0.2008 0.5759 -0.7925
vn -0.0362 0.6412 -0.7665
vn -0.6541 0.7544 0.0552
vn -0.6173 0.7847 0.0561
vn -0.8002 0.5078 0.3191
vn 0.4512 0.6468 0.6148
vn 0.4981 0.8458 0.1912
vn 0.1067 0.9940 0.0226
vn 0.2295 0.6599 0.7154
vn 0.6579 0.3160 0.6836
vn -0.6088 0.0153 0.7932
vn 0.8790 0.3972 -0.2638
vn 0.8595 0.4187 -0.2931
vn 0.1448 0.9189 -0.3669
vn 0.1929 0.9220 -0.3356
vn -0.2679 0.8765 -0.3999
vn 0.0183 0.8057 -0.5921
vn -0.9321 0.3126 -0.1827
vn -0.9940 0.1091 -0.0000
vn -0.8233 0.4694 0.3190
vn -0.8076 0.5096 0.2968
vn -0.5354 0.3440 0.7714
vn -0.0938 0.5897 0.8022
vn 0.7972 0.5852 0.1486
vn 0.3156 0.9143 0.2538
vn -0.7006 0.3451 0.6246
vn 0.2055 0.9185 -0.3379
vn 0.4975 -0.3469 -0.7951
vn 0.0438 -0.5848 -0.8100
vn -0.9294 0.1700 -0.3275
vn -0.9206 -0.2173 -0.3244
vn -0.9255 -0.3437 -0.1590
vn -0.8199 0.4943 0.2889
vn -0.9206 -0.2173 0.3244
vn -0.7603 -0.4372 0.4805
vn 0.4483 0.2844 0.8475
vn 0.4279 -0.4103 0.8053
vn 0.6752 -0.5368 0.5059
vn 0.9817 0.1677 -0.0903
vn 0.9354 -0.3414 -0.0923
vn 0.9520 -0.3028 -0.0452
vn 0.0089 -0.9994 0.0329
vn 0.6079 -0.7940 0.0009
vn -0.0510 -0.8755 -0.4805
vn -0.4895 -0.7920 -0.3648
vn -0.5169 -0.8364 -0.1821
vn -0.7348 -0.6715 -0.0958
vn -0.7348 -0.6715 0.0958
vn -0.5169 -0.8364 0.1821
vn -0.4895 -0.7920 0.3648
vn 0.0054 -0.9995 0.0299
vn 0.0339 -0.9994 0.0012
vn 0.7183 -0.6958 -0.0016
vn -0.0510 -0.8755 0.4805
vn 0.6070 -0.7947 0.0001
vn 0.1082 -0.9937 -0.0290
vt 0.181819 0.000000
vt 0.227273 0.078731
vt 0.136365 0.078731
vt 0.272728 0.157461
vt 0.318182 0.078731
vt 0.363637 0.157461
vt 0.909091 0.000000
vt 0.954545 0.078731
vt 0.863636 0.078731
vt 0.727273 0.000000
vt 0.772727 0.078731
vt 0.681818 0.078731
vt 0.545455 0.000000
vt 0.590909 0.078731
vt 0.500000 0.078731
vt 0.318182 0.236191
vt 0.090910 0.157461
vt 0.181819 0.157461
vt 0.136365 0.236191
vt 0.818182 0.157461
vt 0.909091 0.157461
vt 0.863636 0.236191
vt 0.636364 0.157461
vt 0.727273 0.157461
vt 0.681818 0.236191
vt 0.454546 0.157461
vt 0.545455 0.157461
vt 0.500000 0.236191
vt 0.227273 0.236191
vt 0.045455 0.236191
vt 0.772727 0.236191
vt 0.590909 0.236191
vt 0.409092 0.236191
vt 0.181819 0.314921
vt 0.272728 0.314921
vt 0.227273 0.393651
vt 0.000000 0.314921
vt 0.090910 0.314921
vt 0.045455 0.393651
vt 0.727273 0.314921
vt 0.818182 0.314921
vt 0.772727 0.393651
vt 0.545455 0.314921
vt 0.636364 0.314921
vt 0.590909 0.393651
vt 0.363637 0.314921
vt 0.454546 0.314921
vt 0.409092 0.393651
vt 0.500000 0.393651
vt 0.454546 0.472382
vt 0.681818 0.393651
vt 0.636364 0.472382
vt 0.863636 0.393651
vt 0.818182 0.472382
vt 0.909091 0.314921
vt 0.136365 0.393651
vt 0.090910 0.472382
vt 0.318182 0.393651
vt 0.272728 0.472382
vt 0.954545 0.236191
vt 1.000000 0.157461
vt 0.409092 0.078731
vt 0.363637 0.000000
s 0
f 1/1/1 14/2/1 13/3/1
f 2/4/2 14/5/2 16/6/2
f 1/7/3 13/8/3 18/9/3
f 1/10/4 18/11/4 20/12/4
f 1/13/5 20/14/5 17/15/5
f 2/4/6 16/6/6 23/16/6
f 3/17/7 15/18/7 25/19/7
f 4/20/8 19/21/8 27/22/8
f 5/23/9 21/24/9 29/25/9
f 6/26/10 22/27/10 31/28/10
f 2/4/11 23/16/11 26/29/11
f 3/17/12 25/19/12 28/30/12
f 4/20/13 27/22/13 30/31/13
f 5/23/14 29/25/14 32/32/14
f 6/26/15 31/28/15 24/33/15
f 7/34/16 33/35/16 38/36/16
f 8/37/17 34/38/17 40/39/17
f 9/40/18 35/41/18 41/42/18
f 10/43/19 36/44/19 42/45/19
f 11/46/20 37/47/20 39/48/20
f 39/48/21 42/49/21 12/50/21
f 39/48/22 37/47/22 42/49/22
f 37/47/23 10/43/23 42/49/23
f 42/45/24 41/51/24 12/52/24
f 42/45/25 36/44/25 41/51/25
f 36/44/26 9/40/26 41/51/26
f 41/42/27 40/53/27 12/54/27
f 41/42/28 35/41/28 40/53/28
f 35/41/29 8/55/29 40/53/29
f 40/39/30 38/56/30 12/57/30
f 40/39/31 34/38/31 38/56/31
f 34/38/32 7/34/32 38/56/32
f 38/36/33 39/58/33 12/59/33
f 38/36/34 33/35/34 39/58/34
f 33/35/35 11/46/35 39/58/35
f 24/33/36 37/47/36 11/46/36
f 24/33/37 31/28/37 37/47/37
f 31/28/38 10/43/38 37/47/38
f 32/32/39 36/44/39 10/43/39
f 32/32/40 29/25/40 36/44/40
f 29/25/41 9/40/41 36/44/41
f 30/31/42 35/41/42 9/40/42
f 30/31/43 27/22/43 35/41/43
f 27/22/44 8/55/44 35/41/44
f 28/30/45 34/38/45 8/37/45
f 28/30/46 25/19/46 34/38/46
f 25/19/47 7/34/47 34/38/47
f 26/29/48 33/35/48 7/34/48
f 26/29/49 23/16/49 33/35/49
f 23/16/50 11/46/50 33/35/50
f 31/28/51 32/32/51 10/43/51
f 31/28/52 22/27/52 32/32/52
f 22/27/53 5/23/53 32/32/53
f 29/25/54 30/31/54 9/40/54
f 29/25/55 21/24/55 30/31/55
f 21/24/56 4/20/56 30/31/56
f 27/22/57 28/60/57 8/55/57
f 27/22/58 19/21/58 28/60/58
f 19/21/59 3/61/59 28/60/59
f 25/19/60 26/29/60 7/34/60
f 25/19/61 15/18/61 26/29/61
f 15/18/62 2/4/62 26/29/62
f 23/16/63 24/33/63 11/46/63
f 23/16/64 16/6/64 24/33/64
f 16/6/65 6/26/65 24/33/65
f 17/15/66 22/27/66 6/26/66
f 17/15/67 20/14/67 22/27/67
f 20/14/68 5/23/68 22/27/68
f 20/12/69 21/24/69 5/23/69
f 20/12/70 18/11/70 21/24/70
f 18/11/71 4/20/71 21/24/71
f 18/9/72 19/21/72 4/20/72
f 18/9/73 13/8/73 19/21/73
f 13/8/74 3/61/74 19/21/74
f 16/6/75 17/62/75 6/26/75
f 16/6/76 14/5/76 17/62/76
f 14/5/77 1/63/77 17/62/77
f 13/3/78 15/18/78 3/17/78
f 13/3/79 14/2/79 15/18/79
f 14/2/80 2/4/80 15/18/80
