v -1.75144 -0.0475775 0.944594
v 0.0729985 0.196349 0.970043
v 0.810562 -0.466563 0.940837
v 0.581941 -0.829201 0.717882
v -0.193976 -0.779568 0.502903
v -1.61277 -0.884442 0.674193
v -0.212981 -0.463024 0.929403
v -2.34996 -0.545465 0.867873
v -2.79855 -0.530983 0.451635
v -2.77561 -0.397416 0.0599876
v -1.99855 -0.0950716 -0.314326
v -1.52613 -0.246958 -0.691597
v -1.45238 0.522923 0.640708
v 2.88919 -0.688725 -0.312381
v 0.020016 0.606727 0.998571
v 2.65023 -0.818334 0.241419
v 1.52001 0.411479 0.754142
v -2.32253 -0.727197 -0.0126004
v -2.5456 -0.764893 0.49267
v 1.96678 0.385261 -0.0985609
v 0.388102 -0.56368 -0.705862
v -0.171413 0.463344 -0.816602
v 2.9624 -0.399934 -0.362281
v 2.11063 -0.0222831 0.479049
v -2.67181 -0.139336 0.477243
v 0.751784 1.06254 0.0174338
v 0.387714 -0.301837 -0.815157
v 2.83575 -0.145284 -0.0104799
v -2.53683 -0.0888013 -0.119748
v 1.40039 -0.744637 -0.387278
v -0.340751 -0.850377 -0.392208
v 2.22587 0.0386049 -0.15741
v 2.76714 -0.393476 0.406702
v 3.04664 -0.482865 -0.199812
v 1.19268 0.572975 -0.23956
v 2.26203 -0.464258 0.673678
v -0.826385 0.433528 -0.634023
v 0.0976187 0.98754 0.763281
v -1.05921 -0.696046 -0.547138
v -2.02325 0.0283933 0.615091
v 2.12409 -0.723693 0.552291
v -0.216653 1.01742 -0.515693
v -0.633428 0.509614 0.771218
v -2.39282 -0.428681 -0.331154
v 1.58998 0.64545 0.208758
v -1.52119 0.690831 0.209477
v -1.38458 0.504565 -0.469426
v 1.95033 -0.44874 -0.544818
v -0.63131 0.657158 0.2671
v 0.737528 0.606964 0.620801
v 1.12838 0.536379 -0.452154
v -1.87629 0.219442 -0.488574
v -0.19744 1.20953 0.120746
f 24 17 36
f 41 3 4
f 24 36 33
f 20 45 17
f 45 35 50
f 48 27 22
f 22 42 51
f 26 42 53
f 37 49 53
f 49 38 53
f 43 38 49
f 47 46 49
f 47 49 37
f 43 49 46
f 46 13 43
f 40 1 13
f 13 46 40
f 29 25 40
f 1 40 25
f 25 8 1
f 7 2 1
f 7 1 8
f 2 43 1
f 13 1 43
f 43 2 15
f 15 38 43
f 50 38 15
f 45 50 17
f 2 3 17
f 2 17 50
f 15 2 50
f 41 36 3
f 17 3 36
f 4 3 7
f 41 4 30
f 39 18 44
f 4 7 5
f 5 30 4
f 30 5 31
f 20 17 24
f 7 6 5
f 6 39 31
f 6 18 39
f 18 6 19
f 24 32 20
f 5 6 31
f 10 29 44
f 19 6 8
f 8 6 7
f 22 37 42
f 8 9 19
f 26 53 38
f 25 9 8
f 10 25 29
f 37 53 42
f 26 51 42
f 11 52 12
f 12 29 11
f 12 44 29
f 35 26 50
f 12 37 22
f 37 12 52
f 39 27 21
f 39 12 27
f 35 45 20
f 22 51 48
f 21 31 39
f 35 51 26
f 21 30 31
f 27 48 30
f 27 30 21
f 16 41 30
f 16 33 36
f 16 14 34
f 16 34 33
f 48 23 14
f 14 16 30
f 34 23 28
f 34 14 23
f 44 18 10
f 3 2 7
f 9 10 19
f 18 19 10
f 32 23 48
f 40 52 11
f 44 12 39
f 32 48 51
f 23 32 28
f 28 32 24
f 28 24 33
f 14 30 48
f 11 29 40
f 32 51 20
f 41 16 36
f 51 35 20
f 47 37 52
f 46 52 40
f 34 28 33
f 52 46 47
f 22 27 12
f 38 50 26
f 9 25 10
