v 0.020016 0.606727 0.998571
v 0.0729985 0.196349 0.970043
v 1.52001 0.411479 0.754142
v -1.61277 -0.884442 0.674193
v -2.77561 -0.397416 0.0599876
v -1.52613 -0.246958 -0.691597
v -2.39282 -0.428681 -0.331154
v -1.05921 -0.696046 -0.547138
v -0.340751 -0.850377 -0.392208
v -0.216653 1.01742 -0.515693
v 1.40039 -0.744637 -0.387278
v 2.12409 -0.723693 0.552291
v -0.63131 0.657158 0.2671
v 3.04664 -0.482865 -0.199812
v 2.26203 -0.464258 0.673678
v 2.76714 -0.393476 0.406702
v 2.11063 -0.0222831 0.479049
v -1.45238 0.522923 0.640708
v 0.0976187 0.98754 0.763281
v 2.88919 -0.688725 -0.312381
v -0.633428 0.509614 0.771218
v 2.65023 -0.818334 0.241419
v 0.810562 -0.466563 0.940837
v -2.32253 -0.727197 -0.0126004
v -1.75144 -0.0475775 0.944594
v -2.5456 -0.764893 0.49267
v 0.388102 -0.56368 -0.705862
v -0.171413 0.463344 -0.816602
v -2.02325 0.0283933 0.615091
v 2.9624 -0.399934 -0.362281
v -2.67181 -0.139336 0.477243
v -0.19744 1.20953 0.120746
v -0.212981 -0.463024 0.929403
v 0.387714 -0.301837 -0.815157
v 2.83575 -0.145284 -0.0104799
v 1.96678 0.385261 -0.0985609
v -1.52119 0.690831 0.209477
v -1.99855 -0.0950716 -0.314326
v 1.12838 0.536379 -0.452154
v 2.22587 0.0386049 -0.15741
v 1.19268 0.572975 -0.23956
v -1.87629 0.219442 -0.488574
v -2.79855 -0.530983 0.451635
v -0.826385 0.433528 -0.634023
v -0.193976 -0.779568 0.502903
v 0.737528 0.606964 0.620801
v -2.34996 -0.545465 0.867873
v -2.53683 -0.0888013 -0.119748
v 0.581941 -0.829201 0.717882
v 1.58998 0.64545 0.208758
v 1.95033 -0.44874 -0.544818
v -1.38458 0.504565 -0.469426
v 0.751784 1.06254 0.0174338
f 29 42 38
f 8 24 7
f 43 5 26
f 24 26 5
f 7 24 5
f 28 39 51
f 44 13 32
f 21 19 13
f 52 37 13
f 52 13 44
f 21 13 37
f 18 21 37
f 29 25 18
f 18 37 29
f 48 31 29
f 25 29 31
f 33 2 25
f 33 25 47
f 21 25 2
f 18 25 21
f 21 2 1
f 1 19 21
f 50 46 3
f 2 23 3
f 2 3 46
f 1 2 46
f 7 6 8
f 33 49 23
f 17 40 36
f 7 5 48
f 12 15 23
f 45 11 49
f 24 4 26
f 17 15 16
f 36 50 3
f 26 4 47
f 50 41 46
f 41 53 46
f 47 4 33
f 41 39 53
f 47 43 26
f 28 44 10
f 28 10 39
f 10 53 39
f 31 43 47
f 31 48 5
f 43 31 5
f 44 32 10
f 38 42 6
f 53 32 19
f 6 48 38
f 53 19 46
f 6 7 48
f 6 44 28
f 51 34 28
f 44 6 42
f 41 50 36
f 28 34 6
f 8 34 27
f 8 6 34
f 27 9 8
f 9 27 11
f 34 51 11
f 34 11 27
f 22 12 11
f 22 20 14
f 22 14 16
f 14 30 35
f 16 15 22
f 30 40 35
f 31 47 25
f 40 30 51
f 40 51 39
f 51 30 20
f 53 10 32
f 20 11 51
f 12 22 15
f 13 19 32
f 20 22 11
f 14 35 16
f 14 20 30
f 23 49 12
f 33 4 45
f 35 40 17
f 35 17 16
f 38 48 29
f 49 33 45
f 40 39 36
f 3 23 15
f 39 41 36
f 9 11 45
f 52 44 42
f 9 45 4
f 23 2 33
f 4 24 8
f 36 3 17
f 37 42 29
f 4 8 9
f 17 3 15
f 42 37 52
f 12 49 11
f 19 1 46
